<svg xmlns="http://www.w3.org/2000/svg" width="121" height="63" fill="none" viewBox="0 0 121 63">
    <g clip-path="url(#prefix__clip0)">
        <path fill="#EB6924" d="M87.338 50.71c-2.54-1.7-4.87-3.653-7.083-5.757-3.705-3.518-6.949-7.404-9.483-11.863-1.905-3.343-3.32-6.879-3.908-10.707-.46-2.986-.571-5.973.46-8.889 1.526-4.336 5.359-7.06 9.873-6.995 3.262.046 5.97 1.408 8.324 3.594 1.55 1.438 2.889 3.045 4.083 4.78.443.643.448.667 1.136.234 1.037-.649 2.132-.935 3.343-.66 1.224.274 2.144.964 2.779 2.045 1.008 1.707 2.033 3.401 3.023 5.114.18.315.314.356.623.175.746-.438 1.282-.257 1.748.538.454.783.326 1.32-.431 1.782-.676.41-1.346.836-2.04 1.21-.32.175-.308.321-.139.59.414.655.804 1.327 1.194 1.993.396.678.321 1.268-.204 1.59-.559.344-1.124.146-1.532-.544-.413-.695-.838-1.385-1.229-2.092-.134-.245-.244-.257-.472-.117-.67.415-1.35.824-2.038 1.21-.262.146-.326.269-.152.55.437.683.84 1.384 1.247 2.08.367.625.268 1.239-.239 1.549-.536.327-1.112.128-1.503-.526-.413-.696-.839-1.386-1.235-2.093-.145-.257-.268-.286-.518-.134-.728.456-1.468.894-2.214 1.326-.716.415-1.287.246-1.724-.49-.472-.795-.384-1.374.356-1.795.372-.21.314-.374.134-.672-.979-1.619-1.94-3.255-2.907-4.88-1.41-2.366-.804-4.798 1.538-6.212.442-.263.885-.526 1.363-.812-.926-.959-1.887-1.841-2.895-2.671-1.724-1.408-3.518-2.706-5.668-3.407-3.815-1.25-7.38.415-8.871 4.15-.979 2.46-1.118 5.031-.891 7.632.5 5.797 2.848 10.917 5.836 15.785 2.936 4.774 6.46 9.093 10.316 13.143.035.035.064.076.1.117.034.123.01.17-.1.129z"/>
        <path fill="#EB6924" d="M90.833 10.63c3.332-3.816 6.96-7.305 11.661-9.356 4.689-2.045 9.25-1.677 13.386 1.467 2.901 2.203 4.363 5.295 4.916 8.854.536 3.477-.087 6.832-1.077 10.14-1.544 5.136-4.142 9.712-7.474 13.873-5.941 7.417-13.35 13.021-21.68 17.457-1.24.66-2.522 1.256-3.81 1.817-.18.082-.36.217-.593.14 4.56-3.389 8.877-7.065 12.872-11.097 4.456-4.494 8.458-9.345 11.487-14.938 2.091-3.863 3.594-7.93 4.147-12.314.35-2.793.362-5.575-.675-8.263-1.538-3.992-5.237-5.511-8.674-5.178-2.778.269-5.242 1.45-7.642 2.787-2.376 1.327-4.578 2.923-6.71 4.617-.04.047-.087.041-.134-.005z"/>
        <path fill="#079CC4" d="M62.058 54.228c.938-1.426 1.858-2.864 3.081-4.068.356-.35.729-.683 1.177-.911.862-.439 1.497-.199 1.852.701.21.52.286 1.064.28 1.619-.017 1.619-.046 3.243-.064 4.862-.006.38.04.754.14 1.122.058.228.174.252.303.059.157-.228.285-.474.442-.702 1.503-2.203 2.919-4.476 4.678-6.492.524-.597 1.124-1.134 1.922-1.339 1.386-.362 2.534.678 2.604 2.35.064 1.519-.082 3.033-.257 4.54-.151 1.304-.215 2.613-.151 3.922.052 1.034.617 1.39 1.567.958 1.165-.526 2.073-1.408 2.924-2.337.513-.556.973-1.163 1.456-1.748.064-.082.128-.163.198-.233.216-.205.472-.328.746-.182.268.14.244.433.233.696-.012.24-.157.42-.291.596-1.264 1.63-2.674 3.109-4.416 4.231-.652.42-1.328.789-2.12.894-.897.123-1.538-.17-1.986-.958-.431-.754-.536-1.59-.583-2.437-.099-1.864.134-3.717.245-5.576.04-.654.093-1.309-.03-1.957-.139-.72-.5-.877-1.065-.41-.658.538-1.165 1.216-1.649 1.912-1.415 2.04-2.62 4.213-3.827 6.376-.262.467-.489.952-.838 1.361-.507.596-1.008.515-1.276-.216-.379-1.046-.454-2.156-.536-3.255-.145-1.894-.099-3.793-.11-5.687 0-.262.11-.607-.222-.73-.291-.105-.518.14-.71.327-.892.853-1.58 1.87-2.232 2.899-1.328 2.092-2.603 4.225-3.68 6.464-.123.25-.269.485-.484.666-.268.228-.577.321-.909.187-.332-.135-.431-.438-.402-.766.064-.736.152-1.473.239-2.267-.594.572-1.153 1.128-1.8 1.59-1.433 1.016-2.982 1.682-4.765 1.747-2.05.076-3.588-1.14-3.792-3.203-.36-3.728.915-6.902 3.53-9.543.63-.637 1.445-.918 2.348-.883 1.013.041 1.683.713 1.741 1.742.035.672-.122 1.309-.42 1.893-1.013 1.975-2.399 3.606-4.403 4.646-.157.082-.233.17-.268.34-.128.648-.169 1.303-.029 1.951.257 1.151 1.049 1.66 2.307 1.549 1.672-.146 2.965-1.017 4.112-2.157.676-.672 1.23-1.443 1.724-2.25.42-.683.402-1.484.571-2.238.39-1.695.752-3.39 1.235-5.067.384-1.332 1.293-1.928 2.569-2.104.705-.099 1.002.17.984.883-.017.637-.25 1.215-.5 1.782-.676 1.531-1.282 3.086-1.521 4.757-.023.088-.023.176.128.094zM38.73 49.558c1.537.392 3.04.871 4.432 1.648.56.31 1.084.672 1.55 1.105 1.38 1.262 1.56 2.975.466 4.5-1.025 1.432-2.44 2.361-4.025 3.056-2.231.988-4.555 1.649-7.002 1.8-.256.018-.344.14-.448.34-.437.847-1.858 1.262-2.686.8-.262-.146-.273-.38-.256-.625.11-1.426.204-2.852.344-4.278.28-2.916.64-5.82 1.095-8.714.367-2.35.78-4.687 1.299-7.007.099-.438-.024-.49-.42-.45-1.06.111-2.12.17-3.174.357-.286.052-.618.058-.688-.351-.063-.392.129-.608.507-.707 1.241-.31 2.505-.415 3.769-.561.32-.035.431-.14.495-.444.14-.637.309-1.274.507-1.894.373-1.157 1.73-1.987 2.93-1.83.332.042.425.205.303.492-.437.993-.536 2.063-.77 3.103-.08.35-.005.456.38.462 1.974.04 3.949.163 5.865.707.565.158 1.107.38 1.602.695 1.2.754 1.433 1.794.664 2.992-.443.69-1.014 1.263-1.643 1.777-1.538 1.25-3.244 2.197-5.114 2.84-.076.059-.07.123.018.187zM48.574 22.617c1.042 2.168-.204 4.506-2.627 4.997-.734.152-1.468.17-2.208.105-.42-.041-.681.134-.757.52-.088.42.215.567.565.654.559.135 1.13.059 1.695.065.757.012 1.508-.012 2.26.158 2.685.607 2.65 3.763 1.374 5.178-.99 1.098-2.254 1.63-3.67 1.788-1.176.128-2.37.146-3.523-.246-1.148-.391-1.946-1.104-2.091-2.367-.146-1.198.384-2.098 1.34-2.776.04-.029.075-.064.116-.099-1.13-.789-1.392-2.314.21-3.425-.81-.514-1.259-1.262-1.38-2.185-.13-.941-.036-1.859.465-2.7.792-1.315 2.027-1.864 3.477-2.01.77-.077 1.538.017 2.307.14 1.037.163 2.097.058 3.14.046.448-.006.687.088.594.585-.012.052 0 .105 0 .158-.023.426.163.946-.07 1.262-.245.31-.78.023-1.217.152zM.006 23.727c0-2.156.006-4.313-.006-6.47 0-.38.058-.531.495-.531 2.237.023 4.474.018 6.705.006.35 0 .489.082.466.456-.03.479-.024.964 0 1.449.017.327-.111.403-.42.403-1.34-.011-2.685.006-4.025-.011-.373-.006-.518.087-.507.485.03.841.024 1.689 0 2.536-.011.374.129.467.478.467 1.252-.017 2.51.006 3.763-.011.355-.006.495.093.472.462-.03.444-.03.9 0 1.344.023.356-.123.432-.449.426-1.252-.017-2.51.006-3.763-.017-.384-.006-.512.105-.5.49.023.947.023 1.9 0 2.847-.012.409.145.485.512.479 1.322-.017 2.65.006 3.973-.017.355-.006.489.093.466.461-.03.48-.03.964 0 1.45.017.35-.117.432-.449.432-2.254-.012-4.503-.012-6.757 0-.36 0-.466-.105-.46-.462.018-2.226.006-4.453.006-6.674zM12.704 22.179c.676-1.035 1.491-1.654 2.575-1.859.716-.134 1.444-.14 2.143.082 1.072.339 1.596 1.145 1.777 2.203.07.404.093.824.093 1.233.012 2.174-.006 4.348.012 6.522.006.386-.105.515-.495.497-.566-.03-1.136-.035-1.701 0-.437.03-.507-.152-.501-.537.017-1.953.006-3.899.006-5.85v-.258c-.024-.642-.024-1.315-.734-1.63-.612-.275-1.445-.006-1.998.608-.728.818-.95 1.817-.961 2.875-.012 1.432-.018 2.864.005 4.295.006.392-.104.515-.495.491-.582-.029-1.17-.023-1.753 0-.326.012-.454-.076-.448-.432.011-3.191.011-6.388 0-9.579 0-.28.07-.403.372-.391.618.017 1.241.017 1.858 0 .28-.006.367.093.338.362-.029.415-.052.818-.093 1.368zM62.95 29.308c-1.014 1.602-2.57 1.982-4.142 1.678-1.794-.345-2.621-2.291-1.782-4.039.436-.905 1.194-1.443 2.09-1.817.997-.415 2.051-.561 3.117-.596.396-.012.518-.105.495-.532-.07-1.31-.751-1.619-1.84-1.666-1.142-.046-2.202.287-3.25.795-.077-.69-.146-1.338-.222-1.981-.024-.181.035-.298.215-.35 1.888-.573 3.798-.83 5.732-.252 1.252.374 1.951 1.286 1.992 2.595.052 1.531.023 3.068.04 4.605.013.877.024 1.76.07 2.636.018.345-.052.502-.436.479-.53-.03-1.066-.035-1.596 0-.402.023-.513-.14-.484-.508.024-.322 0-.643 0-1.047zM30.027 28.332c.076.602.152 1.17.222 1.73.029.228-.006.38-.268.468-1.719.573-3.466.736-5.231.345-1.55-.345-2.61-1.321-3.017-2.87-.49-1.864-.466-3.717.46-5.476 1.503-2.852 5.452-2.735 6.995-1.367.973.859 1.346 1.97 1.463 3.202.035.392.005.795.005 1.187 0 .385-.134.567-.582.555-1.788-.03-3.577.006-5.365-.024-.49-.005-.582.152-.53.59.18 1.438 1.066 2.239 2.522 2.292 1.148.04 2.243-.187 3.326-.631zM55.208 44.322c-.775 1.046-1.782 1.385-3 1.122-.74-.163-1.304-.59-1.59-1.274-.705-1.671-.67-3.343.309-4.897.845-1.339 2.208-1.69 3.687-1.584.466.035.507-.117.501-.49-.018-.813.012-1.62-.012-2.432-.011-.368.117-.462.472-.468 1.439-.011 1.439-.023 1.439 1.397 0 3.033-.012 6.072.011 9.105.006.468-.14.631-.582.555-.052-.005-.105 0-.157 0-1.002 0-1.002 0-1.078-1.034z"/>
        <path fill="#089CC4" d="M35.304 22.138c.46-.66.91-1.274 1.637-1.63.396-.194.816-.264 1.247-.281.268-.012.367.093.343.362-.04.655-.064 1.31-.093 1.964-.006.157-.017.321-.25.298-.658-.065-1.288-.012-1.765.514-.56.614-.734 1.39-.804 2.192-.134 1.566-.052 3.138-.052 4.704 0 .468-.111.643-.6.608-.565-.041-1.136-.023-1.701-.006-.309.012-.42-.082-.42-.41.012-3.207.006-6.416 0-9.63 0-.263.07-.368.35-.363.635.018 1.276.018 1.91 0 .257-.005.338.1.315.334-.047.45-.081.894-.117 1.344z"/>
        <path fill="#079CC4" d="M65.903 41.102c.046 3.208-2.325 5.032-5.155 4.231-1.037-.292-1.678-.993-1.98-1.999-.292-.976-.315-1.97-.03-2.957.85-2.945 3.996-3.185 5.621-2.25 1.252.713 1.52 1.929 1.544 2.975zM51.836 25.591c0-1.566.011-3.132-.006-4.704-.006-.345.099-.444.437-.427.634.024 1.27.018 1.904 0 .268-.006.356.076.356.351-.006 3.22-.006 6.44 0 9.666 0 .293-.088.392-.379.386-.617-.018-1.235-.023-1.852 0-.361.018-.466-.105-.46-.468.011-1.6 0-3.202 0-4.803z"/>
        <path fill="#089CC4" d="M53.146 19.134c-.92-.012-1.625-.73-1.62-1.654.012-.9.746-1.59 1.684-1.584.956.006 1.637.684 1.631 1.619-.006.947-.722 1.63-1.695 1.619z"/>
        <path fill="#F1945E" d="M90.833 10.63c.047.006.093.012.14.012-.1.164-.25.269-.501.415.128-.222.215-.35.361-.427z"/>
        <path fill="#F18F56" d="M87.338 50.71l.11-.111c.164.087.28.216.403.42-.24-.052-.379-.169-.513-.31z"/>
        <path fill="#9EC7DE" d="M38.73 49.558c-.082-.011-.222.065-.222-.076 0-.11.128-.122.227-.11-.005.064-.005.122-.005.186z"/>
        <path fill="#A3CAE0" d="M62.058 54.228c-.035.088-.105.245-.157.21-.122-.087-.058-.222.029-.327.04.035.082.076.128.117z"/>
        <path fill="#FEFFFF" d="M50.694 55.32c-.012-.455.175-.847.303-1.25.378-1.221.873-2.39 1.596-3.448.39-.567.827-.812 1.159-.666.344.152.466.608.256 1.303-.466 1.543-1.49 2.688-2.703 3.688-.174.146-.331.339-.611.374z"/>
        <path fill="#fff" d="M34.093 58.47c-.018-2.056.314-4.078.64-6.1.094-.58.199-1.152.269-1.736.035-.298.157-.386.436-.333 2.11.403 4.2.876 6.128 1.876.74.38 1.41.859 1.893 1.56.67.97.583 1.975-.25 2.8-.431.426-.932.765-1.462 1.045-2.266 1.18-4.7 1.789-7.211 2.169-.361.052-.466-.047-.443-.392.012-.304 0-.596 0-.888zM43.978 43.796c-.059.795-.484 1.315-1.043 1.753-1.503 1.17-3.25 1.847-5.033 2.431-.687.223-1.386.398-2.079.603-.309.093-.454.052-.39-.316.36-2.051.722-4.103 1.066-6.154.058-.362.198-.473.57-.456 1.596.07 3.192.158 4.748.555.6.152 1.176.38 1.689.748.303.217.443.515.472.836zM44.525 31.132c.414 0 .827-.024 1.235.006.658.04 1.084.362 1.24.9.164.543-.046 1.122-.535 1.502-.804.63-2.709.73-3.588.187-.553-.34-.787-.935-.606-1.56.198-.685.658-1.053 1.328-1.053h.926v.018zM44.374 25.89c-1.287-.006-1.98-.66-1.969-1.853.012-1.14.78-1.83 2.033-1.823 1.24.005 1.945.7 1.94 1.899-.012 1.14-.734 1.777-2.004 1.777z"/>
        <path fill="#FEFFFF" d="M60.503 28.993c-.594-.006-.984-.252-1.136-.701-.18-.544 0-1.11.513-1.438.798-.514 1.712-.532 2.62-.579.158-.005.199.082.205.228.029 1.198-.868 2.525-2.202 2.49z"/>
        <path fill="#FEFEFF" d="M26.13 24.282c-.512 0-1.03-.011-1.543.006-.274.006-.361-.082-.32-.362.192-1.256 1.514-2.034 2.673-1.566.344.14.617.368.798.701.501.918.332 1.221-.681 1.221h-.927z"/>
        <path fill="#fff" d="M55.068 40.78c0 .667.047 1.345-.227 1.982-.157.368-.355.707-.699.929-.646.415-1.439.199-1.695-.532-.344-.97-.338-1.964.047-2.922.43-1.058 1.526-1.134 2.4-.918.18.047.174.188.174.328v1.134zM60.596 41.581c0-1.192.396-1.91 1.206-2.18.827-.274 1.63.094 1.91.918.28.806.28 1.63-.017 2.431-.262.713-.88 1.128-1.532 1.093-.78-.047-1.246-.462-1.468-1.286-.087-.321-.099-.643-.099-.976z"/>
    </g>
    <defs>
        <clipPath id="prefix__clip0">
            <path fill="#fff" d="M0 0H121V63H0z"/>
        </clipPath>
    </defs>
</svg>
